<svg data-v-423bf9ae="" xmlns="http://www.w3.org/2000/svg" viewBox="0 0 555 90" class="iconLeft"><!----><!----><!----><g data-v-423bf9ae="" id="0dfa2efa-4891-40f6-82f4-184f26300b37" fill="white" transform="matrix(5.7915059834320255,0,0,5.7915059834320255,122.48379894253597,14.999999523162842)"><path d="M4.13 10.35C5.07 10.35 5.89 10.01 6.48 9.45L5.92 8.85C5.47 9.25 4.86 9.49 4.16 9.49C2.73 9.49 1.57 8.47 1.57 6.94C1.57 5.40 2.73 4.40 4.16 4.40C4.86 4.40 5.47 4.65 5.92 5.05L6.48 4.44C5.89 3.89 5.07 3.54 4.13 3.54C2.27 3.54 0.67 4.87 0.67 6.94C0.67 9.02 2.27 10.35 4.13 10.35ZM10.91 10.36C12.77 10.36 14.34 9.00 14.34 6.93C14.34 4.86 12.77 3.54 10.91 3.54C9.04 3.54 7.49 4.86 7.49 6.93C7.49 9.00 9.04 10.36 10.91 10.36ZM10.91 9.51C9.52 9.51 8.39 8.48 8.39 6.93C8.39 5.39 9.52 4.40 10.91 4.40C12.28 4.40 13.44 5.39 13.44 6.93C13.44 8.48 12.28 9.51 10.91 9.51ZM21.59 0L21.59 4.94C21.10 4.06 20.09 3.54 18.98 3.54C17.15 3.54 15.67 4.96 15.67 6.94C15.67 8.93 17.16 10.36 18.98 10.36C20.08 10.36 21.10 9.84 21.59 8.95L21.59 10.22L22.48 10.22L22.48 0ZM19.05 9.51C17.68 9.51 16.56 8.39 16.56 6.93C16.56 5.49 17.68 4.40 19.05 4.40C20.36 4.40 21.59 5.39 21.59 6.97C21.59 8.48 20.41 9.51 19.05 9.51ZM30.83 6.93C30.83 4.86 29.47 3.54 27.61 3.54C25.76 3.54 24.28 4.86 24.28 6.93C24.28 9.00 25.76 10.36 27.61 10.36C28.84 10.36 29.96 9.77 30.53 8.72L29.76 8.39C29.33 9.10 28.53 9.51 27.64 9.51C26.32 9.51 25.34 8.72 25.19 7.32L30.81 7.32C30.83 7.20 30.83 7.06 30.83 6.93ZM25.20 6.55C25.37 5.15 26.32 4.40 27.61 4.40C28.88 4.40 29.82 5.19 29.95 6.55ZM34.43 10.36C35.78 10.36 36.83 9.62 36.83 8.46C36.83 7.70 36.44 6.93 35.17 6.62L34.20 6.38C33.73 6.27 33.19 6.01 33.19 5.39C33.19 4.77 33.71 4.34 34.47 4.34C35.11 4.34 35.69 4.73 35.73 5.32L36.60 5.32C36.55 4.14 35.55 3.54 34.45 3.54C33.21 3.54 32.30 4.31 32.30 5.38C32.30 6.47 33.04 6.94 33.96 7.17L34.90 7.39C35.57 7.56 35.94 7.91 35.94 8.44C35.94 9.10 35.36 9.56 34.43 9.56C33.47 9.56 32.97 9.00 32.87 8.46L32.05 8.46C32.16 9.70 33.29 10.36 34.43 10.36ZM41.41 3.68L39.91 3.68L39.91 1.08L39.03 1.08L39.03 3.68L37.84 3.68L37.84 4.45L39.03 4.45L39.03 10.22L39.91 10.22L39.91 4.45L41.41 4.45ZM45.75 3.54C44.73 3.54 44.03 4.17 43.71 5.28L43.71 3.68L42.80 3.68L42.80 10.22L43.71 10.22L43.71 7.76C43.71 6.15 44.18 4.41 45.74 4.41C45.98 4.41 46.28 4.45 46.62 4.59L46.79 3.74C46.54 3.61 46.12 3.54 45.75 3.54ZM53.82 6.93C53.82 4.86 52.46 3.54 50.60 3.54C48.75 3.54 47.26 4.86 47.26 6.93C47.26 9.00 48.75 10.36 50.60 10.36C51.83 10.36 52.95 9.77 53.52 8.72L52.75 8.39C52.32 9.10 51.52 9.51 50.62 9.51C49.31 9.51 48.33 8.72 48.17 7.32L53.80 7.32C53.82 7.20 53.82 7.06 53.82 6.93ZM48.19 6.55C48.36 5.15 49.31 4.40 50.60 4.40C51.87 4.40 52.81 5.19 52.93 6.55ZM61.04 3.68L61.04 4.94C60.55 4.06 59.54 3.54 58.44 3.54C56.60 3.54 55.12 4.96 55.12 6.94C55.12 8.93 56.62 10.36 58.44 10.36C59.53 10.36 60.55 9.84 61.04 8.95L61.04 10.22L61.94 10.22L61.94 3.68ZM58.51 9.51C57.13 9.51 56.01 8.39 56.01 6.93C56.01 5.49 57.13 4.40 58.51 4.40C59.81 4.40 61.04 5.39 61.04 6.97C61.04 8.48 59.86 9.51 58.51 9.51ZM72.02 3.54C71.22 3.54 70.08 3.81 69.61 5.11C69.24 4.10 68.38 3.54 67.31 3.54C66.35 3.54 65.41 3.99 65.07 4.86L65.07 3.68L64.18 3.68L64.18 10.22L65.07 10.22L65.07 6.59C65.10 5.03 66.11 4.41 67.16 4.41C68.19 4.41 68.95 5.18 68.95 6.45L68.95 10.22L69.83 10.22L69.83 6.83L69.85 6.89C69.75 5.29 70.64 4.40 71.88 4.41C72.95 4.41 73.71 5.19 73.71 6.45L73.71 10.22L74.61 10.22L74.61 6.41C74.61 4.61 73.60 3.54 72.02 3.54Z"></path></g><!----><g data-v-423bf9ae="" id="11478f44-f250-4756-a2ad-aa38ec06aa6a" transform="matrix(1.0636412252222749,0,0,1.0636412252222749,0.8179387388862551,-13.854192520563473)" stroke="none" fill="white"><path d="M0 13.422v84.615h100V13.422H0zm92.308 76.924H7.692V28.807h84.615v61.539z"></path><path d="M42.002 66.065H68.49v7.775H42.002zM15.521 66.064l26.467-10.515v-.022l.014.006v-8.352l-.014.006v-.022L15.521 36.65l-.006 8.364 15.972 6.343-15.972 6.344z"></path></g><!----></svg>